<?xml version="1.0" encoding="UTF-8" standalone="no"?>
<!DOCTYPE svg PUBLIC "-//W3C//DTD SVG 1.1//EN" "http://www.w3.org/Graphics/SVG/1.1/DTD/svg11.dtd">
<svg width="100%" height="100%" viewBox="0 0 384 512" version="1.1" xmlns="http://www.w3.org/2000/svg" xmlns:xlink="http://www.w3.org/1999/xlink" xml:space="preserve" xmlns:serif="http://www.serif.com/" style="fill-rule:evenodd;clip-rule:evenodd;stroke-linejoin:round;stroke-miterlimit:2;">
    <path d="M376,232L216,232L216,72C216,67.58 212.42,64 208,64L176,64C171.58,64 168,67.58 168,72L168,232L8,232C3.58,232 0,235.58 0,240L0,272C0,276.42 3.58,280 8,280L168,280L168,440C168,444.42 171.58,448 176,448L208,448C212.42,448 216,444.42 216,440L216,280L376,280C380.42,280 384,276.42 384,272L384,240C384,235.58 380.42,232 376,232Z" style="fill:white;fill-rule:nonzero;"/>
</svg>
